HIERARCHY
ROOT simHips
{
  OFFSET 6.13146 95.3961 -0.669452
  CHANNELS 6 Xposition Yposition Zposition Zrotation Xrotation Yrotation
  JOINT simSpine
  {
    OFFSET -0.000360269 21.3001 -0.0169217
    CHANNELS 3 Zrotation Xrotation Yrotation
    JOINT simLeftArm
    {
      OFFSET 13.5181 21.3012 -2.3511e-005
      CHANNELS 3 Zrotation Xrotation Yrotation
      JOINT simLeftForeArm
      {
        OFFSET 24.5783 0 -6.3921e-005
        CHANNELS 3 Zrotation Xrotation Yrotation
        JOINT simLeftHand
        {
          OFFSET 24.5783 0 0
          CHANNELS 3 Zrotation Xrotation Yrotation
          End Site
          {
            OFFSET 7.32568 1.52588e-005 0.0169305
          }
        }
      }
    }
    JOINT simHead
    {
      OFFSET 0 27.4458 -0.00488811
      CHANNELS 3 Zrotation Xrotation Yrotation
      End Site
      {
        OFFSET 0 0 0
      }
    }
    JOINT simRightArm
    {
      OFFSET -13.5174 21.3012 -1.52733e-005
      CHANNELS 3 Zrotation Xrotation Yrotation
      JOINT simRightForeArm
      {
        OFFSET -24.5783 -0.000552281 0.000112897
        CHANNELS 3 Zrotation Xrotation Yrotation
        JOINT simRightHand
        {
          OFFSET -24.5783 0 1.19926e-005
          CHANNELS 3 Zrotation Xrotation Yrotation
          End Site
          {
            OFFSET -7.32568 1.52588e-005 0.0169305
          }
        }
      }
    }
  }
  JOINT simRightUpLeg
  {
    OFFSET -8.44614 -9.41038 0.835682
    CHANNELS 3 Zrotation Xrotation Yrotation
    JOINT simRightLeg
    {
      OFFSET -3.23466e-005 -40.9639 0
      CHANNELS 3 Zrotation Xrotation Yrotation
      JOINT simRightFoot
      {
        OFFSET 0 -40.9639 0
        CHANNELS 3 Zrotation Xrotation Yrotation
        End Site
        {
          OFFSET 0.50614 -9.67405 14.6709
        }
      }
    }
  }
  JOINT simLeftUpLeg
  {
    OFFSET 8.44614 -9.41038 0.835681
    CHANNELS 3 Zrotation Xrotation Yrotation
    JOINT simLeftLeg
    {
      OFFSET -0.00018133 -40.964 6.2497e-005
      CHANNELS 3 Zrotation Xrotation Yrotation
      JOINT simLeftFoot
      {
        OFFSET 0 -40.9639 0
        CHANNELS 3 Zrotation Xrotation Yrotation
        End Site
        {
          OFFSET -0.50614 -9.67405 14.6709
        }
      }
    }
  }
}
MOTION
Frames:	27
Frame Time:	0.0333333
2.94708 97.8357 13.2594 4.65586 2.76727 -39.0123 1.36507 4.99732 12.6859 -63.6993 -5.81742 11.4843 1.70205e-005 4.76872e-008 -63.4567 -39.0965 -42.1531 -50.1844 -0.646251 -9.85443 7.2817 61.002 1.61048 37.8434 -0.00594835 -3.18055e-015 81.665 170.152 -14.4662 -151.748 -25.3907 0.559811 -31.0072 3.48203e-005 26.4278 0.0457755 25.1975 -16.9546 5.31757 22.7142 -32.84 16.6187 0.00394218 35.3256 -0.0812638 -17.3011 -4.08884 -6.06232 
2.34207 98.013 13.2654 4.28472 1.22346 -38.9721 2.03373 4.26734 12.6018 -63.9281 -5.88484 12.3494 1.70207e-005 4.73084e-008 -63.6838 -39.5047 -42.0891 -50.3806 -0.958862 -8.89373 7.21687 60.9757 1.91597 37.8426 -0.00949378 0 82.6177 170.182 -14.6582 -151.222 -25.5535 2.6796 -30.6643 2.33656e-005 25.4466 0.0491706 25.1302 -16.902 5.52558 21.622 -30.4795 15.5748 0.00436939 34.0195 -0.0867815 -17.6959 -3.85089 -5.78943 
1.75161 98.1889 13.2734 3.9034 -0.14488 -39.0012 2.73372 3.51347 12.5308 -64.1575 -5.99391 13.2257 1.70209e-005 4.67889e-008 -63.9946 -39.8988 -41.9094 -50.7463 -1.13109 -7.94953 7.17959 60.8752 2.19643 37.7158 0.00382852 3.18055e-015 83.7601 169.938 -14.9021 -150.855 -25.6171 4.64412 -30.353 0.000265059 24.4509 0.052434 25.028 -16.8217 5.73226 20.7443 -28.1889 14.6419 0.00421089 32.631 -0.0915074 -18.0868 -3.57596 -5.43619 
1.16606 98.3567 13.2704 3.48817 -1.35956 -39.0386 3.46887 2.80245 12.4388 -64.3743 -6.20798 13.9821 1.70212e-005 4.62499e-008 -64.3161 -39.976 -41.6902 -50.9202 -1.27631 -6.82219 7.32999 60.8309 2.43808 37.4794 -0.0157415 -3.18055e-015 84.9098 169.706 -15.1205 -150.908 -25.5681 6.50694 -30.108 0.00063599 23.4624 0.0557172 24.8658 -16.7214 5.9219 20.062 -25.9883 13.77 0.00360586 31.2224 -0.095521 -18.4752 -3.28238 -5.05406 
0.590259 98.486 13.2511 3.02931 -2.33832 -39.0471 4.28239 2.06918 12.253 -64.5932 -6.51648 14.7226 1.70215e-005 4.56735e-008 -64.6591 -40.0544 -41.4412 -51.1734 -1.61237 -5.48509 7.43862 60.8263 2.56854 37.0717 -0.0121612 -3.18055e-015 86.3514 169.68 -15.2917 -150.607 -25.3824 8.16183 -29.9214 0.00102177 22.6527 0.0588717 24.7051 -16.7075 6.08853 19.6432 -24.0111 12.9817 0.00290721 29.9142 -0.0991211 -18.8494 -3.01103 -4.70845 
0.0920362 98.5724 13.2346 2.69601 -3.17393 -39.0978 4.98421 1.27101 12.0639 -64.7496 -6.84375 15.5693 1.70218e-005 4.5029e-008 -65.0414 -40.1076 -41.1401 -51.2205 -2.34035 -4.06458 7.21359 60.9066 2.66256 36.5503 -0.040516 -3.18055e-015 87.9846 169.862 -15.6278 -149.918 -25.3234 9.4579 -29.6978 0.00123902 22.1321 0.0619763 24.6038 -16.7961 6.22855 19.2893 -22.3336 12.3614 0.00133007 28.7918 -0.100335 -19.1617 -2.77755 -4.4024 
-0.311968 98.6135 13.2299 2.5084 -3.90766 -39.2151 5.53097 0.513445 11.9254 -64.8848 -7.13802 16.2745 1.70219e-005 4.4684e-008 -65.2455 -40.1204 -40.6825 -51.4322 -3.10584 -3.04181 7.01891 60.9746 2.65547 35.973 0.000182238 -3.18055e-015 89.6238 170.233 -16.1155 -149.202 -25.4544 10.3802 -29.3889 0.00145254 21.9241 0.0643721 24.5779 -16.9841 6.35227 18.9601 -20.9873 11.9613 0.000198775 27.9623 -0.101364 -19.3985 -2.60827 -4.17752 
-0.619043 98.6107 13.2265 2.37072 -4.5516 -39.3771 5.93767 0.0485147 11.77 -65.0043 -7.54585 16.8777 1.70221e-005 4.42523e-008 -65.5005 -40.457 -40.2639 -52.0902 -3.75566 -2.26599 7.14226 61.1345 2.5266 35.371 0.000396729 1.79675e-016 91.4673 170.526 -16.4157 -148.291 -25.7096 10.9842 -28.9868 0.00162341 22.057 0.0659391 24.5943 -17.279 6.46396 18.699 -19.94 11.7285 -0.000423194 27.4542 -0.102209 -19.5723 -2.50109 -4.04071 
-0.84716 98.5921 13.1886 2.26927 -4.96623 -39.648 6.3224 -0.26217 11.6134 -65.1194 -7.91298 17.6128 1.70225e-005 4.34544e-008 -65.9704 -40.7671 -39.8342 -52.7717 -4.20379 -1.58088 7.4225 61.2832 2.41178 34.784 -0.0401001 4.12879e-016 93.3734 170.455 -16.6141 -147.604 -25.8998 11.2361 -28.5389 0.00169756 22.2912 0.0674249 24.6153 -17.5748 6.54994 18.6408 -19.2073 11.7519 -0.000768308 27.1518 -0.102741 -19.713 -2.4079 -3.97611 
-1.00966 98.565 13.1188 2.24339 -5.21516 -40.0102 6.43162 -0.257885 11.3662 -65.2068 -8.34293 18.1444 1.70228e-005 4.26956e-008 -66.4157 -40.9853 -39.4646 -53.1551 -4.27015 -1.47221 7.62744 61.473 2.15311 34.3573 -0.0222626 5.4427e-015 95.3933 170.933 -17.1283 -146.699 -26.0707 11.198 -28.0778 0.00174872 22.5639 0.0687805 24.6418 -17.8412 6.62055 18.7056 -18.758 11.9948 -0.000862209 27.0471 -0.102936 -19.8339 -2.33074 -3.97673 
-1.10668 98.5221 13.0262 2.25737 -5.30143 -40.4273 6.44709 -0.0526815 11.0606 -65.3134 -8.56652 18.5054 1.7023e-005 4.2307e-008 -66.6432 -41.1119 -39.12 -53.7414 -4.2972 -1.55447 7.64039 61.6587 1.97138 34.0036 -0.0103607 -7.30749e-015 97.2499 170.648 -17.3109 -146.739 -26.1975 10.9193 -27.6318 0.00177358 22.8768 0.0699858 24.7119 -18.0809 6.69422 18.8989 -18.6289 12.3568 -0.00054871 27.2257 -0.102854 -19.9383 -2.30736 -4.00292 
-1.10651 98.4631 12.9043 2.37185 -5.11801 -40.8654 6.46873 0.14719 10.779 -65.4716 -8.51379 18.8198 1.7023e-005 4.22852e-008 -66.6559 -41.1961 -38.5477 -54.7561 -4.32722 -1.35212 7.79078 61.8831 1.56617 33.6118 0.00352478 1.14027e-015 99.3525 170.922 -17.9419 -146.355 -26.2649 10.2389 -27.2573 0.00166652 23.3079 0.0710612 24.7988 -18.2995 6.74373 19.2478 -18.9897 12.8461 0.000210317 27.7192 -0.102512 -20.0173 -2.32399 -4.03686 
-1.03383 98.3848 12.7506 2.51434 -4.61245 -41.2627 6.5627 0.415882 10.4732 -65.7355 -8.34298 18.9376 1.70229e-005 4.26041e-008 -66.4693 -42.0397 -38.393 -55.9071 -4.41378 -1.06978 8.06852 62.1232 1.06659 33.1847 -0.00898743 1.35702e-015 101.151 171.237 -18.1533 -146.445 -26.1517 9.22354 -27.0196 0.00145218 23.8364 0.071978 24.8909 -18.5024 6.76888 19.848 -19.8353 13.4169 0.00132677 28.5016 -0.101875 -20.0829 -2.36037 -4.08958 
-0.897474 98.2937 12.57 2.65709 -3.77938 -41.5976 6.68259 0.791311 10.097 -66.0205 -8.15488 18.8808 1.70227e-005 4.3064e-008 -66.1997 -42.5458 -38.1421 -56.475 -4.45563 -1.02569 7.99213 62.3798 0.434442 32.7404 -0.0149417 -1.55512e-015 102.805 171.872 -18.1046 -146.45 -25.8094 7.9618 -26.942 0.00143244 24.3597 0.0726584 24.9995 -18.6538 6.76281 20.7189 -21.1055 14.0417 0.0025961 29.4948 -0.100856 -20.1315 -2.39034 -4.14378 
-0.683106 98.1889 12.352 2.84616 -2.65226 -41.9268 6.73639 1.29232 9.6609 -66.2924 -7.89819 18.6261 1.70223e-005 4.38677e-008 -65.7272 -42.6079 -37.6655 -56.936 -4.14198 -1.39874 8.1817 62.6361 -0.175076 32.2938 -0.0204314 -1.75553e-015 104.489 172.023 -18.4401 -146.105 -25.3427 6.32941 -26.955 0.00148526 25.0359 0.0731711 25.0749 -18.797 6.7137 21.8481 -22.7894 14.797 0.00278712 30.6901 -0.0971667 -20.1583 -2.34194 -4.18974 
-0.371828 98.0528 12.1133 3.16149 -1.26259 -42.3469 6.76666 1.7468 9.29129 -66.5889 -7.4733 18.2452 1.70217e-005 4.51501e-008 -64.9696 -42.6821 -37.4585 -57.5893 -3.74655 -1.86576 8.42027 62.9099 -0.63818 32.0063 -0.0254703 -1.90684e-015 105.769 172.031 -19.0607 -145.547 -24.9006 4.17251 -26.9695 0.00127096 26.036 0.0736064 25.119 -18.9858 6.64974 23.2061 -24.8387 15.8283 0.00241442 32.059 -0.0922268 -20.1457 -2.28883 -4.23506 
0.0469226 97.8763 11.8829 3.619 0.294706 -42.9757 6.60883 2.3033 9.11721 -66.7838 -7.10818 17.9354 1.70213e-005 4.59855e-008 -64.4736 -42.9814 -37.504 -58.477 -3.51959 -2.4048 8.49541 63.1941 -1.11489 31.9046 -0.0300718 1.99828e-015 106.546 172.105 -19.0295 -145.719 -24.555 1.54356 -26.8725 0.000807872 27.2777 0.0739106 25.2033 -19.1766 6.58858 24.7882 -27.0316 17.3146 0.00214324 33.4779 -0.0877682 -20.0812 -2.34879 -4.33171 
0.567191 97.6544 11.6872 4.17527 1.99839 -43.7372 6.16243 3.03603 8.97608 -66.8015 -7.00198 17.6676 1.70211e-005 4.6415e-008 -64.2178 -43.6226 -37.7194 -59.2317 -3.05543 -3.38702 8.94046 63.6093 -1.49553 32.0409 -0.0342496 2.05359e-015 107.018 172.564 -18.9439 -145.329 -24.2593 -1.40775 -26.7612 9.47474e-005 28.7002 0.0740355 25.2958 -19.3842 6.5485 26.6496 -29.3327 19.2561 0.00188692 34.9669 -0.0835849 -19.9514 -2.47323 -4.53899 
1.14392 97.3951 11.554 4.77341 3.80824 -44.5213 5.52752 3.7959 8.85118 -66.6898 -6.90298 17.3822 1.70209e-005 4.67973e-008 -63.9896 -43.3218 -37.5184 -59.3884 -2.34916 -4.67061 9.63975 64.0776 -1.67828 32.1606 -0.038017 9.54202e-015 107.095 173.226 -18.8742 -145.013 -23.9673 -4.45371 -26.7395 -0.000746206 30.1674 0.0738659 25.4186 -19.5682 6.55076 28.7579 -31.6687 21.488 0.00169494 36.4989 -0.079827 -19.7604 -2.65698 -4.82182 
1.71854 97.1142 11.4998 5.28964 5.66855 -45.2034 4.8692 4.60088 8.76702 -66.5543 -6.67342 16.6883 1.70204e-005 4.79725e-008 -63.2853 -43.3782 -37.1583 -60.1945 -1.56375 -6.02962 10.3183 64.5703 -1.7077 32.1728 -0.0413878 2.03051e-015 106.821 173.204 -18.9034 -145.238 -23.5832 -7.29306 -26.8953 -0.00149134 31.4858 0.073216 25.5819 -19.6686 6.61228 31.1171 -33.9135 23.9178 0.00173627 38.0285 -0.0768329 -19.5131 -2.86114 -5.25282 
2.29215 96.8339 11.5472 5.67053 7.47428 -45.6282 4.23311 5.50961 8.66722 -66.4462 -6.34622 15.7767 1.70196e-005 4.94148e-008 -62.4151 -43.3985 -36.9175 -60.2679 -0.828473 -7.32574 10.778 64.9634 -1.69046 32.1236 -0.0443754 1.93902e-015 106.042 172.88 -19.0994 -145.816 -23.144 -9.68158 -27.2905 -0.000952939 32.5148 0.0699866 25.748 -19.6319 6.68978 33.518 -36.0363 26.2967 0.00164677 39.522 -0.0740233 -19.2076 -3.08246 -5.79968 
2.85869 96.5925 11.6903 5.98196 9.30111 -45.794 3.72826 6.33776 8.6005 -66.3853 -6.01014 14.7746 1.70188e-005 5.08858e-008 -61.5203 -43.2795 -36.8714 -60.0399 -0.399782 -8.41786 11.1024 65.3243 -1.7639 32.11 -0.0469934 -8.32592e-015 104.862 172.01 -18.2727 -146.693 -22.6367 -11.7007 -27.9162 -1.7121e-005 33.1774 0.065851 25.8943 -19.4364 6.72491 35.8504 -38.1192 28.4449 0.00182038 40.8441 -0.0721847 -18.8666 -3.28756 -6.27724 
3.38549 96.4107 11.92 6.31293 10.998 -45.6554 3.14252 7.08072 8.65561 -66.324 -5.54458 13.5642 1.70179e-005 5.26133e-008 -60.4597 -42.4499 -36.6955 -59.699 0.0859573 -9.52988 11.1058 65.833 -2.09556 32.0532 -0.0492553 -1.63778e-015 103.498 171.817 -17.7765 -147.146 -22.1814 -13.2107 -28.7403 -2.81741e-005 33.3113 0.0610117 26.065 -19.0813 6.66912 37.8456 -40.1645 30.2462 0.00248617 41.9702 -0.0716011 -18.5027 -3.45717 -6.70091 
3.86514 96.3075 12.2373 6.61636 12.4459 -45.2035 2.50556 7.82533 8.789 -66.2836 -5.14795 12.1088 1.70169e-005 5.42926e-008 -59.4179 -41.6858 -36.9285 -58.5165 0.614467 -10.5177 10.8552 66.3736 -2.57962 31.9484 -0.0511748 1.45441e-015 101.963 171.836 -17.6602 -147.572 -21.9095 -14.1557 -29.7522 -1.84335e-005 33.0844 0.0556823 26.263 -18.6183 6.56649 39.1877 -42.0451 31.4385 0.0026629 42.7886 -0.0708971 -18.1051 -3.60191 -7.01403 
4.28727 96.2523 12.5934 6.89173 13.7872 -44.6347 1.95022 8.45973 9.02378 -66.3374 -4.87127 10.743 1.7016e-005 5.58381e-008 -58.4491 -41.8037 -37.0363 -58.685 1.05814 -11.3799 10.4185 66.7812 -3.11366 31.757 -0.0527652 1.2777e-015 100.492 171.891 -17.4994 -147.722 -21.6582 -14.8444 -30.747 -4.28948e-005 32.6547 0.0502142 26.4237 -18.1313 6.35656 40.2558 -43.7902 32.3797 0.00254746 43.4035 -0.0702208 -17.737 -3.7078 -7.28366 
4.64811 96.2318 12.967 7.19306 14.9307 -44.0621 1.3545 9.00127 9.36127 -66.3759 -4.74363 9.71081 1.70156e-005 5.64614e-008 -58.0556 -40.6752 -37.2584 -58.1877 1.42095 -12.0827 10.0103 67.0707 -3.5697 31.5708 -0.0540403 -5.12823e-015 99.0897 171.99 -17.4114 -147.805 -21.5088 -15.3122 -31.6927 3.63221e-005 32.0589 0.0448481 26.5596 -17.6141 6.12282 41.025 -45.3303 33.1649 0.00224927 43.865 -0.0696693 -17.4146 -3.80663 -7.54603 
4.95353 96.236 13.3384 7.4717 15.9324 -43.4907 0.849368 9.48686 9.81308 -66.4576 -4.53163 8.72723 1.70152e-005 5.70296e-008 -57.6954 -39.1746 -37.4206 -57.9458 1.73199 -12.7063 9.5268 67.1041 -3.96514 31.4288 -0.0550135 -4.33825e-015 97.6802 172.139 -17.3457 -147.976 -21.3816 -15.6134 -32.585 3.74782e-005 31.361 0.0399472 26.6397 -17.0997 5.88409 41.6182 -46.6805 33.8589 0.00183393 44.1974 -0.0693136 -17.1262 -3.87615 -7.83249 
